<svg width="32" height="32" viewBox="0 0 32 32" fill="none" xmlns="http://www.w3.org/2000/svg">
<g id="User Interface / Page Collection">
<path id="Vector" d="M3.33335 14.08L15.3333 21.0133C15.536 21.1304 15.766 21.192 16 21.192C16.2341 21.192 16.464 21.1304 16.6667 21.0133L28.6667 14.08C28.8687 13.9628 29.0364 13.7946 29.153 13.5922C29.2696 13.3898 29.331 13.1603 29.331 12.9267C29.331 12.6931 29.2696 12.4636 29.153 12.2612C29.0364 12.0588 28.8687 11.8906 28.6667 11.7733L16.6667 4.84001C16.464 4.72299 16.2341 4.66138 16 4.66138C15.766 4.66138 15.536 4.72299 15.3333 4.84001L3.33335 11.7733C3.1313 11.8906 2.96358 12.0588 2.84699 12.2612C2.73041 12.4636 2.66904 12.6931 2.66904 12.9267C2.66904 13.1603 2.73041 13.3898 2.84699 13.5922C2.96358 13.7946 3.1313 13.9628 3.33335 14.08ZM16 7.53334L25.3333 12.8667L16 18.2667L6.66668 12.92L16 7.53334ZM27.3333 17.92L16 24.4667L4.66668 17.92C4.5153 17.8313 4.34789 17.7733 4.17407 17.7495C4.00024 17.7256 3.82341 17.7362 3.65371 17.7808C3.48401 17.8254 3.32478 17.9031 3.18515 18.0093C3.04552 18.1156 2.92823 18.2483 2.84001 18.4C2.75186 18.5522 2.69467 18.7203 2.67176 18.8947C2.64885 19.069 2.66066 19.2462 2.70652 19.416C2.75237 19.5858 2.83137 19.7448 2.93894 19.884C3.04652 20.0231 3.18056 20.1396 3.33335 20.2267L15.3333 27.16C15.536 27.277 15.766 27.3386 16 27.3386C16.2341 27.3386 16.464 27.277 16.6667 27.16L28.6667 20.2267C28.8195 20.1396 28.9535 20.0231 29.0611 19.884C29.1687 19.7448 29.2477 19.5858 29.2935 19.416C29.3394 19.2462 29.3512 19.069 29.3283 18.8947C29.3054 18.7203 29.2482 18.5522 29.16 18.4C29.0718 18.2483 28.9545 18.1156 28.8149 18.0093C28.6752 17.9031 28.516 17.8254 28.3463 17.7808C28.1766 17.7362 27.9998 17.7256 27.826 17.7495C27.6521 17.7733 27.4847 17.8313 27.3333 17.92Z" fill="white"/>
</g>
</svg>
