<svg width="32" height="32" viewBox="0 0 32 32" fill="none" xmlns="http://www.w3.org/2000/svg">
<g id="Location and Map / map">
<path id="Vector" d="M28.4266 6.73334L20.4266 4.06667H20.3333C20.2712 4.06043 20.2087 4.06043 20.1466 4.06667H19.84H19.6666H19.5733L12 6.66667L4.42663 4.06667C4.22612 4.00055 4.01277 3.983 3.80414 4.01545C3.59552 4.0479 3.39759 4.12943 3.22663 4.25334C3.05431 4.37602 2.91365 4.53795 2.81628 4.72574C2.7189 4.91354 2.66761 5.1218 2.66663 5.33334V24C2.66591 24.2795 2.75306 24.5522 2.91575 24.7795C3.07845 25.0068 3.30847 25.1772 3.5733 25.2667L11.5733 27.9333C11.8419 28.0209 12.1314 28.0209 12.4 27.9333L20 25.4L27.5733 28C27.7149 28.0192 27.8584 28.0192 28 28C28.2787 28.0039 28.5509 27.9148 28.7733 27.7467C28.9456 27.624 29.0863 27.4621 29.1837 27.2743C29.281 27.0865 29.3323 26.8782 29.3333 26.6667V8C29.334 7.72048 29.2469 7.44779 29.0842 7.2205C28.9215 6.9932 28.6915 6.82278 28.4266 6.73334ZM10.6666 24.8133L5.3333 23.04V7.18667L10.6666 8.96V24.8133ZM18.6666 23.04L13.3333 24.8133V8.96L18.6666 7.18667V23.04ZM26.6666 24.8133L21.3333 23.04V7.18667L26.6666 8.96V24.8133Z" fill="white"/>
</g>
</svg>
