<svg width="36" height="36" viewBox="0 0 36 36" fill="none" xmlns="http://www.w3.org/2000/svg">
<path d="M29.835 14.325C29.7104 14.0776 29.5197 13.8696 29.284 13.724C29.0484 13.5784 28.777 13.5008 28.5 13.5H21V4.5C21.0161 4.17103 20.9235 3.8459 20.7364 3.5748C20.5494 3.30371 20.2783 3.10171 19.965 3C19.6639 2.90092 19.3391 2.8998 19.0372 2.99682C18.7354 3.09384 18.4721 3.284 18.285 3.54L6.28504 20.04C6.13468 20.2573 6.0444 20.5105 6.02333 20.7739C6.00226 21.0373 6.05114 21.3016 6.16504 21.54C6.26992 21.8126 6.45212 22.0487 6.68927 22.2192C6.92642 22.3898 7.20821 22.4874 7.50004 22.5H15V31.5C15.0003 31.8163 15.1005 32.1245 15.2864 32.3804C15.4723 32.6363 15.7343 32.8269 16.035 32.925C16.1857 32.9717 16.3423 32.997 16.5 33C16.7367 33.0006 16.9702 32.9452 17.1813 32.8383C17.3925 32.7314 17.5754 32.5761 17.715 32.385L29.715 15.885C29.8767 15.6612 29.9734 15.3971 29.9945 15.1219C30.0157 14.8466 29.9605 14.5709 29.835 14.325V14.325ZM18 26.88V21C18 20.6022 17.842 20.2206 17.5607 19.9393C17.2794 19.658 16.8979 19.5 16.5 19.5H10.5L18 9.12V15C18 15.3978 18.1581 15.7794 18.4394 16.0607C18.7207 16.342 19.1022 16.5 19.5 16.5H25.5L18 26.88Z" fill="white"/>
</svg>
